<svg xmlns="http://www.w3.org/2000/svg" viewBox="0 0 35 35"><g clip-path="url('#a')"><path d="M24.063 6.563a6.562 6.562 0 1 0-13.125 0 6.562 6.562 0 0 0 13.124 0Zm-8.095 9.918C11.912 14 5.343 13.316 2.038 13.128.925 13.065 0 13.912 0 14.98v15.23c0 .98.792 1.797 1.81 1.85 2.985.156 9.024.73 13.197 2.832.64.323 1.4-.117 1.4-.811V17.265a.91.91 0 0 0-.439-.784Zm16.995-3.353c-3.305.188-9.875.87-13.93 3.353a.927.927 0 0 0-.439.795v16.802c0 .697.762 1.137 1.404.814 4.173-2.1 10.208-2.674 13.192-2.83 1.018-.053 1.81-.87 1.81-1.85V14.98c0-1.068-.926-1.915-2.037-1.852Z"/></g><defs><clipPath id="a"><path d="M0 0h35v35H0z"/></clipPath></defs></svg>