<svg xmlns="http://www.w3.org/2000/svg" viewBox="0 0 35 35">
  <g clip-path="url(#a)">
    <path d="m34.036 9.714-3.151 3.151a.821.821 0 0 1-1.162 0l-7.588-7.588a.821.821 0 0 1 0-1.162L25.286.964a3.288 3.288 0 0 1 4.642 0l4.108 4.108a3.276 3.276 0 0 1 0 4.642ZM19.428 6.822 1.477 24.773.027 33.08c-.198 1.121.78 2.092 1.9 1.9l8.306-1.456 17.951-17.95a.821.821 0 0 0 0-1.163l-7.587-7.588a.83.83 0 0 0-1.17 0ZM8.483 23.235a.953.953 0 0 1 0-1.353l10.528-10.528a.953.953 0 0 1 1.353 0 .953.953 0 0 1 0 1.354L9.837 23.235a.953.953 0 0 1-1.354 0Zm-2.467 5.75h3.28v2.48l-4.408.773-2.126-2.126.772-4.409h2.482v3.281Z"/>
  </g>
  <defs>
    <clipPath id="a">
      <path d="M0 0h35v35H0z"/>
    </clipPath>
  </defs>
</svg>
