<svg xmlns="http://www.w3.org/2000/svg" viewBox="0 0 35 30">
  <path d="M31.377 7.766c1.367-1.026 2.598-2.256 3.555-3.692-1.23.547-2.666.957-4.102 1.094 1.504-.889 2.598-2.256 3.145-3.965a15.16 15.16 0 0 1-4.512 1.777A7.178 7.178 0 0 0 24.199.725a7.177 7.177 0 0 0-7.178 7.177c0 .547.069 1.094.206 1.641a20.825 20.825 0 0 1-14.834-7.52c-.616 1.026-.957 2.256-.957 3.623 0 2.461 1.23 4.649 3.212 5.948-1.162-.069-2.324-.342-3.28-.889v.068c0 3.487 2.46 6.358 5.741 7.041-.546.137-1.23.274-1.845.274-.479 0-.889-.069-1.368-.137.89 2.871 3.555 4.922 6.7 4.99-2.461 1.915-5.537 3.077-8.887 3.077-.615 0-1.162-.069-1.709-.137 3.145 2.05 6.904 3.213 11.006 3.213 13.193 0 20.371-10.87 20.371-20.371v-.957Z"/>
</svg>
