<svg xmlns="http://www.w3.org/2000/svg" viewBox="0 0 35 35">
  <path d="M33.906 8.75v1.094a.547.547 0 0 1-.547.547h-1.64v.82a.82.82 0 0 1-.82.82H4.101a.82.82 0 0 1-.82-.82v-.82H1.64a.547.547 0 0 1-.547-.547V8.75a.547.547 0 0 1 .338-.505L17.29 2.229a.547.547 0 0 1 .418 0l15.86 6.016a.546.546 0 0 1 .337.505Zm-1.64 20.781H2.734a1.64 1.64 0 0 0-1.64 1.64v1.095a.547.547 0 0 0 .547.547h31.718a.547.547 0 0 0 .547-.547v-1.094a1.64 1.64 0 0 0-1.64-1.64ZM6.563 13.125V26.25H4.101a.82.82 0 0 0-.82.82v1.367h28.437V27.07a.82.82 0 0 0-.82-.82h-2.462V13.125h-4.375V26.25h-4.375V13.125h-4.375V26.25h-4.374V13.125H6.561Z"/>
</svg>
